<?xml version="1.0" encoding="UTF-8"?><svg id="Capa_1" xmlns="http://www.w3.org/2000/svg" viewBox="0 0 114.19 35"><defs><style>.cls-1{fill:#fff;}.cls-2{fill:#0363cc;}</style></defs><path class="cls-2" d="M104.49,29.15c-.06,.13-.11,.27-.18,.4-.41,.74-1.01,1.23-1.86,1.36-.31,.05-.62,.08-.93,.08-6.92,0-13.84,0-20.76,0-.74,0-1.43-.2-1.98-.73-.38-.37-.65-.79-.77-1.32-.07-.29-.09-.58-.09-.87,0-7.11,0-14.21,0-21.32,0-.72,.23-1.36,.71-1.89,.39-.43,.88-.71,1.46-.79,.3-.04,.6-.06,.9-.06,6.95,0,13.9,0,20.85,0,.64,0,1.24,.15,1.75,.56,.39,.31,.69,.69,.84,1.17,.01,.04,.04,.07,.06,.1V29.15Zm-12.11-13.1c0-.4,0-.76,0-1.12,0-.26-.03-.29-.29-.29-.25,0-.51,0-.76,0-.81,0-1.62,0-2.43,0-.32,0-.35,.03-.34,.35,0,.21,.03,.43,.03,.64,0,2.21-.02,4.43-.03,6.64,0,1.01,0,2.03,0,3.04,0,.29,.03,.31,.32,.31,1.05,0,2.11,0,3.16,0,.31,0,.33-.02,.34-.33,0-.09,0-.18,0-.26,0-1.83,0-3.67,0-5.5,0-.27,.01-.55,.09-.81,.23-.71,.72-1.16,1.46-1.33,.84-.19,1.78,.1,2.13,1.08,.16,.45,.19,.91,.19,1.38,0,1.81,0,3.63,0,5.44,0,.31,.02,.33,.3,.33,1.07,0,2.15,0,3.22,0,.29,0,.3-.02,.31-.3,0-.03,0-.06,0-.09,0-2.03,0-4.06,0-6.09,0-.78-.13-1.55-.44-2.28-.33-.78-.83-1.43-1.57-1.87-.73-.44-1.53-.62-2.38-.6-.97,.01-1.87,.25-2.62,.92-.24,.21-.44,.46-.71,.74Zm-5.53,4.08h0c0-1.64,0-3.28,0-4.92,0-.11,0-.21,0-.32,0-.22-.03-.24-.26-.25-.03,0-.06,0-.09,0-1,0-1.99,0-2.99,0-.48,0-.48,0-.48,.48,0,3.34,0,6.67,0,10.01,0,.07,0,.14,0,.2,0,.26,.03,.29,.29,.29,1.09,0,2.19,0,3.28,0,.22,0,.24-.04,.25-.26,0-.06,0-.12,0-.18,0-1.69,0-3.38,0-5.06Zm-4.04-8.91c-.01,.65,.22,1.14,.67,1.53,.73,.63,2.08,.62,2.8,.1,.6-.44,.89-1.03,.81-1.77-.08-.76-.51-1.27-1.22-1.54-.63-.24-1.27-.21-1.89,.03-.72,.28-1.2,.94-1.17,1.65Z"/><path d="M70.89,15.18v-5.68c.24-.09,3.38-.1,3.73-.03,0,.11,.02,.24,.02,.36,0,2.8,0,5.6,0,8.4,0,1.4-.01,2.81,0,4.21,.01,.93,.06,1.85,.09,2.78,0,.1,0,.21,0,.33-.09,0-.17,.02-.24,.02-.92,0-1.83,0-2.75,0-.04,0-.08,0-.12,0-.15,0-.2-.07-.21-.21-.03-.37-.07-.74-.1-1.11,0-.09-.03-.19-.05-.32-.07,.05-.12,.07-.14,.1-.62,.96-1.54,1.47-2.63,1.68-1.06,.2-2.1,.13-3.09-.32-1.14-.52-1.95-1.37-2.48-2.49-.45-.95-.61-1.97-.61-3.01,0-.89,.13-1.75,.45-2.58,.57-1.43,1.54-2.48,2.99-3.03,1.3-.5,2.61-.5,3.91,.03,.22,.09,.44,.22,.63,.36,.19,.13,.36,.3,.6,.5Zm0,4.59h0c0-.32,0-.64,0-.96,.01-.56-.21-1.03-.58-1.43-.56-.62-1.28-.79-2.08-.67-.76,.11-1.32,.53-1.7,1.2-.21,.37-.33,.77-.4,1.18-.12,.77-.1,1.54,.18,2.28,.43,1.16,1.39,1.78,2.72,1.61,.44-.06,.84-.25,1.17-.56,.47-.44,.65-1,.67-1.63,.01-.34,0-.68,0-1.02Z"/><path d="M46.61,18.85l4.92,6.71c-.15,.01-.23,.02-.31,.02-1.34,0-2.67,0-4.01,0-.21,0-.33-.07-.44-.25-.86-1.39-1.72-2.77-2.58-4.15-.05-.08-.11-.16-.21-.31-.05,.09-.07,.16-.11,.21-.12,.15-.23,.32-.37,.45-.38,.35-.46,.77-.44,1.26,.03,.8,0,1.6,0,2.4,0,.11-.01,.23-.02,.36h-3.64c-.07-.21-.08-15.76-.02-16.09,.21-.06,3.24-.07,3.65-.02,0,.11,.02,.24,.02,.36,0,2.39,0,4.78,0,7.17,0,.47,0,.94,0,1.41,0,.1,0,.19,0,.35,.09-.08,.14-.12,.18-.17,1-1.39,2.01-2.78,3.01-4.18,.12-.17,.25-.23,.46-.23,1.28,0,2.56,0,3.84,0,.09,0,.17,0,.31,0-.06,.1-.09,.17-.14,.22-.79,.86-1.59,1.72-2.39,2.57-.51,.55-1.02,1.1-1.53,1.65-.06,.06-.11,.14-.18,.23Z"/><path d="M61.51,21.03h-7.71c-.02,.37,.12,.66,.29,.93,.3,.46,.75,.74,1.25,.92,.63,.24,1.28,.3,1.95,.3,1.04,0,2.06-.14,3.06-.41,.04,0,.07,0,.14,0,.03,.1,.06,.2,.09,.3,.12,.57,.24,1.15,.36,1.72,.06,.29,.05,.31-.22,.41-.64,.23-1.31,.39-1.98,.49-.81,.12-1.63,.16-2.45,.14-1.01-.03-2-.19-2.93-.61-1.48-.66-2.49-1.77-2.91-3.35-.48-1.83-.29-3.61,.7-5.24,.79-1.3,1.96-2.12,3.44-2.48,1.06-.26,2.13-.28,3.19-.04,1.69,.38,2.83,1.42,3.44,3.03,.25,.66,.36,1.35,.42,2.05,.04,.5-.02,.99-.06,1.49,0,.1-.04,.21-.07,.36Zm-3.35-2.48c.05-.32-.02-.6-.11-.86-.36-1.04-1.1-1.46-2.06-1.43-.9,.03-1.53,.52-1.94,1.3-.15,.3-.27,.62-.3,.99h4.41Z"/><path d="M37.79,25.56h-3.72c0-.13-.02-.25-.02-.37,0-1.86,0-3.73,0-5.59,0-.36-.05-.72-.16-1.06-.29-.84-.92-1.26-1.8-1.24-1.1,.02-2,.94-2,2.07,0,.55,0,1.09,0,1.64,0,1.4,0,2.79,0,4.19v.33c-.23,.07-3.29,.09-3.71,.03-.04-1.8,.01-3.61,0-5.42,0-1.8,0-3.6,0-5.43h3.7c.02,.47,0,.93,.01,1.41,.14-.01,.17-.12,.23-.19,.46-.61,1.04-1.05,1.77-1.28,.59-.19,1.2-.25,1.82-.19,.74,.06,1.44,.26,2.06,.68,.81,.55,1.3,1.33,1.57,2.26,.18,.59,.25,1.2,.25,1.82,0,2,0,4,0,6v.36Z"/><path d="M9.74,25.58c-.07-.32-.06-15.88,0-16.13,.07,0,.14-.02,.22-.02,1.04,0,2.09,0,3.13,0,.04,0,.08,0,.12,0,.14,0,.22,.05,.22,.21,0,.1,0,.2,0,.29,0,3.99,0,7.98,0,11.97q0,.41,.42,.41c1.92,0,3.84,0,5.77,0,.39,0,.39,0,.39,.38,0,.84,0,1.68,0,2.52,0,.07,0,.14,0,.2,0,.1-.05,.16-.16,.17-.06,0-.12,0-.18,0-3.22,0-6.44,0-9.66,0h-.27Z"/><path d="M21.23,25.55c-.06-.21-.08-10.48-.02-10.81,.21-.07,3.33-.09,3.68-.02v10.81c-.2,.07-3.34,.08-3.67,.02Z"/><path d="M23.02,13.18c-.57,.01-1.07-.16-1.5-.55-.91-.84-.79-2.57,.69-3.07,.56-.19,1.13-.2,1.69-.01,.77,.26,1.25,.87,1.27,1.68,.01,.76-.38,1.43-1.13,1.76-.34,.15-.57,.19-1.02,.19Z"/><path class="cls-1" d="M92.39,16.05c.26-.28,.47-.52,.71-.74,.74-.66,1.64-.91,2.62-.92,.84-.01,1.64,.17,2.38,.6,.74,.44,1.24,1.09,1.57,1.87,.31,.73,.43,1.5,.44,2.28,.01,2.03,0,4.06,0,6.09,0,.03,0,.06,0,.09,0,.28-.02,.3-.31,.3-1.07,0-2.15,0-3.22,0-.28,0-.3-.02-.3-.33,0-1.81,0-3.63,0-5.44,0-.47-.04-.93-.19-1.38-.35-.98-1.29-1.27-2.13-1.08-.74,.17-1.23,.62-1.46,1.33-.08,.25-.09,.54-.09,.81,0,1.83,0,3.67,0,5.5,0,.09,0,.18,0,.26,0,.31-.03,.33-.34,.33-1.05,0-2.11,0-3.16,0-.3,0-.32-.02-.32-.31,0-1.01,0-2.03,0-3.04,0-2.21,.02-4.43,.03-6.64,0-.21-.03-.43-.03-.64,0-.33,.02-.35,.34-.35,.81,0,1.62,0,2.43,0,.25,0,.51,0,.76,0,.25,0,.28,.03,.29,.29,0,.36,0,.72,0,1.12Z"/><path class="cls-1" d="M86.86,20.12c0,1.69,0,3.38,0,5.06,0,.06,0,.12,0,.18,0,.23-.04,.26-.25,.26-1.09,0-2.19,0-3.28,0-.25,0-.28-.04-.29-.29,0-.07,0-.14,0-.2,0-3.34,0-6.67,0-10.01,0-.48,0-.48,.48-.48,1,0,1.99,0,2.99,0,.03,0,.06,0,.09,0,.23,.01,.25,.03,.26,.25,0,.11,0,.21,0,.32,0,1.64,0,3.28,0,4.92h0Z"/><path class="cls-1" d="M82.82,11.21c-.02-.71,.45-1.37,1.17-1.65,.62-.24,1.25-.27,1.89-.03,.71,.27,1.14,.78,1.22,1.54,.08,.74-.21,1.34-.81,1.77-.72,.52-2.07,.53-2.8-.1-.46-.4-.69-.89-.67-1.53Z"/></svg>